OpenSim_Sub10_EMGStiffKnee_GRF.mot
version=1
nRows=35
nColumns=19
inDegrees=no
endheader
time	lFx	lFy	lFz	lCOPx	lCOPy	lCOPz	rFx	rFy	rFz	rCOPx	rCOPy	rCOPz	lMx	lMy	lMz	rMx	rMy	rMz
41.85000000	36.13259901	255.51254007	9.23646855	0.73943763	0	-0.65607156	-29.31213640	66.53954819	1.59529939	0.72523801	0	-0.26862048	0	0.24474717	0	0	-0.47634666	0
41.86000000	28.90199028	208.03823296	5.09594981	0.73880302	0	-0.65816805	-30.22765720	143.46097228	2.41449408	1.01104198	0	-0.36996488	0	0.30410114	0	0	-0.82277702	0.00000000
41.87000000	21.79242564	163.72086460	2.10393757	0.73903189	0	-0.66090947	-27.50799777	249.37587138	1.48077349	1.14836682	0	-0.41535563	0	0.11980601	0	0	-1.09709635	0
41.88000000	15.07154188	124.06807246	0.45238095	0.73484567	0	-0.65839199	-33.78649991	360.16116309	-4.45696218	1.18113336	0	-0.42436716	0	-0.25892307	0	0	-1.04276238	0
41.89000000	9.26153593	90.16115669	-0.00955159	0.71353994	0	-0.63672499	-50.00264802	451.86916873	-15.63191685	1.17149497	0	-0.41870784	0	-0.73674728	0	0	-0.90101034	0
41.90000000	4.59031683	62.47609957	0.21524301	0.65526118	0	-0.57573469	-70.11634808	516.81101328	-28.55825708	1.15628102	0	-0.41092465	0	-1.09982394	0	0	-1.28289663	0
41.91000000	0.38051475	41.42095144	0.66933596	0.54263157	0	-0.46384977	-89.92717365	557.63915537	-38.41770016	1.14676302	0	-0.40553306	0	-1.28076601	0	0	-1.98096563	-0.00000000
41.92000000	-3.33256419	26.59204444	0.70000453	0.37510843	0	-0.31259288	-106.76662596	581.85055622	-45.35916977	1.14231347	0	-0.40268950	0	-1.22584846	0	0	-2.33667750	0
41.93000000	-5.32821782	16.18257397	0.06230193	0.18724935	0	-0.15294313	-119.98482077	598.09710961	-51.86818137	1.13987658	0	-0.40139644	0	-0.83546060	0	0	-2.78043767	0
41.94000000	-4.79522380	8.61922291	-0.88772646	0.05290284	0	-0.04156970	-128.27398772	611.25794974	-57.48038922	1.13752857	0	-0.40069820	0	-0.35611593	0	0	-3.20869511	-0.00000000
41.95000000	-2.82002162	3.54348087	-1.83228351	-0.00670559	0	0.00680061	-130.66161389	621.66430570	-61.67156972	1.13447166	0	-0.40014001	0	-0.06694544	0	0	-3.62621641	-0.00000000
41.96000000	-1.16336546	1.02596240	-2.40039598	-0.01936093	0	0.01644879	-127.44259868	629.48424457	-63.90193060	1.13012020	0	-0.39969694	0	0.03991133	0	0	-4.10975753	0
41.97000000	-0.35561206	0.33630213	-2.58547093	-0.01384981	0	0.01147556	-119.83111400	635.82374488	-63.69450792	1.12450028	0	-0.39947737	0	0.04985091	0	0	-4.50124541	0.00000000
41.98000000	-0.16976001	0.50597436	-2.63102361	-0.00606658	0	0.00491930	-109.65415759	640.62062020	-61.08369747	1.11806700	0	-0.39956839	0	0.02968863	0	0	-4.77650215	0
41.99000000	-0.28646871	0.82506158	-2.61497653	-0.00124134	0	0.00094198	-98.39875767	642.28934557	-56.84967457	1.11139713	0	-0.39996699	0	0.01080270	0	0	-4.98554983	0
42	-0.45379189	1.05046407	-2.63728212	0.00059851	0	-0.00053744	-87.22718712	639.22306568	-52.21578520	1.10482289	0	-0.40058048	0	0.00088487	0	0	-5.03464521	-0.00000000
42.01000000	-0.55798695	1.12940256	-2.70264496	0.00081018	0	-0.00068197	-77.36426493	631.04001718	-48.17798664	1.09868499	0	-0.40121548	0	-0.00213509	0	0	-4.94697527	0
42.02000000	-0.61804611	1.06019187	-2.73882148	0.00049572	0	-0.00040840	-69.43242116	618.22861129	-45.30940543	1.09304057	0	-0.40170218	0	-0.00195571	0	0	-4.88464429	0
42.03000000	-0.65352357	0.98412872	-2.75688939	0.00018623	0	-0.00014960	-63.17690612	601.80508108	-43.91009862	1.08775378	0	-0.40207155	0	-0.00101458	0	0	-4.82923595	0
42.04000000	-0.67869859	1.03801426	-2.76824601	0.00001950	0	-0.00001298	-58.06399344	583.50142334	-43.75242510	1.08284522	0	-0.40241122	0	-0.00030268	0	0	-4.71229840	0
42.05000000	-0.67974087	1.13235096	-2.79283129	-0.00003338	0	0.00002898	-53.60952222	565.68659273	-44.18916926	1.07815211	0	-0.40271236	0	0.00002339	0	0	-4.59553253	0
42.06000000	-0.64703545	1.16227432	-2.77801823	-0.00003207	0	0.00002680	-49.59733404	550.54797323	-44.80525245	1.07348355	0	-0.40297115	0	0.00009870	0	0	-4.48696844	0
42.07000000	-0.58877864	1.09163656	-2.76986793	-0.00001707	0	0.00001398	-45.94534447	539.18392505	-45.42554229	1.06878884	0	-0.40325450	0	0.00007345	0	0	-4.37677236	0
42.08000000	-0.53834804	0.98331912	-2.78824746	-0.00000531	0	0.00000421	-42.71447313	531.66623640	-45.73098887	1.06399916	0	-0.40359075	0	0.00003322	0	0	-4.31273416	0
42.09000000	-0.51642704	0.95805592	-2.77934017	0.00000022	0	-0.00000029	-39.80581858	527.49187306	-45.36909102	1.05879744	0	-0.40394446	0	0.00000743	0	0	-4.25264003	0
42.10000000	-0.53288194	0.88440950	-2.78285400	0.00000158	0	-0.00000135	-37.21125943	526.30575169	-44.28767814	1.05323863	0	-0.40426312	0	-0.00000277	0	0	-4.11173967	0
42.11000000	-0.57317951	0.74551235	-2.78671821	0.00000121	0	-0.00000101	-35.07545549	527.95311093	-42.64520665	1.04750370	0	-0.40450003	0	-0.00000419	0	0	-3.97447135	0.00000000
42.12000000	-0.58375553	0.69801038	-2.77105317	0.00000056	0	-0.00000046	-33.42447468	532.20666071	-40.86317025	1.04163302	0	-0.40464498	0	-0.00000265	0	0	-3.90238905	0
42.13000000	-0.56567013	0.78614985	-2.77124777	0.00000013	0	-0.00000010	-31.98137454	538.88686438	-39.52870334	1.03550386	0	-0.40469081	0	-0.00000103	0	0	-3.81831628	0
42.14000000	-0.56602287	0.96933161	-2.79112818	-0.00000004	0	0.00000004	-30.46124036	547.87271223	-38.96319238	1.02931254	0	-0.40456483	0	-0.00000013	0	0	-3.71633816	0.00000000
42.15000000	-0.60147552	1.19635643	-2.81135641	-0.00000007	0	0.00000006	-28.82232147	558.64166639	-39.17822818	1.02316821	0	-0.40424400	0	0.00000016	0	0	-3.64659788	0.00000000
42.16000000	-0.64204818	1.33232698	-2.81106804	-0.00000004	0	0.00000004	-26.98413127	570.23980461	-40.13633631	1.01694774	0	-0.40379554	0	0.00000017	0	0	-3.59595232	0.00000000
42.17000000	-0.64965009	1.35101540	-2.79298819	-0.00000002	0	0.00000001	-25.01273232	581.79847241	-41.61069997	1.01055944	0	-0.40326125	0	0.00000009	0	0	-3.55101534	-0.00000000
42.18000000	-0.61349577	1.29654507	-2.73129646	0.00000000	0	-0.00000000	-22.98042343	592.98094338	-43.12709808	1.00416509	0	-0.40262230	0	0.00000003	0	0	-3.54570954	0
42.19000000	-0.55994412	1.26380900	-2.63281036	0.00000001	0	-0.00000001	-20.86670976	603.94066156	-44.53386256	0.99778251	0	-0.40192436	0	0.00000001	0	0	-3.50310000	-0.00000000
